Format                                   : MPEG-4
Format profile                           : Base Media / Version 2
Codec ID                                 : mp42
File size                                : 1.96 GiB
Duration                                 : 4h 6mn
Overall bit rate mode                    : Variable
Overall bit rate                         : 1 137 Kbps

Video
ID                                       : 1
Format                                   : AVC
Format/Info                              : Advanced Video Codec
Format profile                           : High@L3.1
Format settings, CABAC                   : Yes
Format settings, ReFrames                : 4 frames
Codec ID                                 : avc1
Codec ID/Info                            : Advanced Video Coding
Duration                                 : 4h 6mn
Bit rate mode                            : Variable
Bit rate                                 : 1 055 Kbps
Maximum bit rate                         : 6 230 Kbps
Width                                    : 720 pixels
Height                                   : 540 pixels
Display aspect ratio                     : 4:3
Frame rate mode                          : Constant
Frame rate                               : 29.970 fps
Color space                              : YUV
Chroma subsampling                       : 4:2:0
Bit depth                                : 8 bits
Scan type                                : Progressive
Bits/(Pixel*Frame)                       : 0.091
Stream size                              : 1.81 GiB (93%)
Language                                 : English

Audio
ID                                       : 2
Format                                   : AAC
Format/Info                              : Advanced Audio Codec
Format profile                           : LC
Codec ID                                 : 40
Duration                                 : 4h 6mn
Bit rate mode                            : Variable
Bit rate                                 : 77.9 Kbps
Maximum bit rate                         : 93.9 Kbps
Channel(s)                               : 2 channels
Channel positions                        : Front: L R
Sampling rate                            : 48.0 KHz
Compression mode                         : Lossy
Delay relative to video                  : 33ms
Stream size                              : 137 MiB (7%)
Title                                    : und

Screens.  http://bayimg.com/bAMJGaaeJ

          http://bayimg.com/bamjHaaEj  

Enjoy.